<svg xmlns="http://www.w3.org/2000/svg" xmlns:svg="http://www.w3.org/2000/svg" id="svg4171" width="32" height="32" version="1.1" viewBox="0 0 32 32"><metadata id="metadata4177"/><defs id="defs4175"><filter style="color-interpolation-filters:sRGB" id="filter4229" width="1.187" height="1.045" x="-.094" y="-.022"><feGaussianBlur id="feGaussianBlur4231" stdDeviation=".195"/></filter><filter style="color-interpolation-filters:sRGB" id="filter4461" width="1.27" height="1.042" x="-.135" y="-.021"><feGaussianBlur id="feGaussianBlur4463" stdDeviation=".113"/></filter><mask id="mask4479" maskUnits="userSpaceOnUse"><path id="path4481" d="m 10.009212,23.901584 0,-12.909277 1.879574,0 0,12.909277 z" style="fill:#fff;fill-opacity:1;fill-rule:evenodd;stroke:none;stroke-width:1px;stroke-linecap:butt;stroke-linejoin:miter;stroke-opacity:1"/></mask><filter style="color-interpolation-filters:sRGB" id="filter4495" width="1.131" height="1.05" x="-.065" y="-.025"><feGaussianBlur id="feGaussianBlur4497" stdDeviation=".217"/></filter><filter style="color-interpolation-filters:sRGB" id="filter4533" width="1.083" height="1.064" x="-.041" y="-.032"><feGaussianBlur id="feGaussianBlur4535" stdDeviation=".111"/></filter></defs><path style="fill:#7f7f7f;fill-rule:evenodd;stroke:none;stroke-width:1px;stroke-linecap:butt;stroke-linejoin:miter;stroke-opacity:1;fill-opacity:1" id="path4451" d="m 0,30 0,-28 25,0 0,5 -9,9 9,9 0,5 z"/><path style="fill:#3c3c3c;fill-opacity:1;fill-rule:evenodd;stroke:none;stroke-width:1px;stroke-linecap:butt;stroke-linejoin:miter;stroke-opacity:1;filter:url(#filter4495)" id="path4193-4" d="m 7.4712644,26.572414 0,-21.0000002 2.9999996,0 0,4 4,0 c 0,0 -1,0 0,0 1,0 1,1.0000002 1,1.0000002 l 0,15 c 0,0 0,-1 0,0 0,1 -1,1 -1,1 z"/><path style="fill:#fff;fill-rule:evenodd;stroke:none;stroke-width:1px;stroke-linecap:butt;stroke-linejoin:miter;stroke-opacity:1;fill-opacity:1" id="path4193" d="m 7,26 0,-21 3,0 0,4 4,0 c 0,0 -1,0 0,0 1,0 1,1 1,1 l 0,15 c 0,0 0,-1 0,0 0,1 -1,1 -1,1 z"/><rect style="opacity:1;fill:#f90;fill-opacity:1;stroke:none;stroke-width:2.20000005;stroke-linecap:round;stroke-linejoin:miter;stroke-miterlimit:4;stroke-dasharray:none;stroke-dashoffset:0;stroke-opacity:1" id="rect4185" width="11" height="11" x="23.475" y="-11.911" transform="matrix(0.70710678,0.70710678,-0.70710678,0.70710678,0,0)"/><path style="fill:#3c3c3c;fill-opacity:1;fill-rule:evenodd;stroke:none;stroke-width:1px;stroke-linecap:butt;stroke-linejoin:miter;stroke-opacity:1;filter:url(#filter4229)" id="path4191-1" d="m 2.5827586,26.372414 0,-15 -1,0 0,-2.0000002 1,0 0,-3 c 0,0 0,1 0,0 0,-1 1,-1 1,-1 l 3,0 0,2 -1,0 0,2 1,0 0,2.0000002 -1,0 0,15 z"/><path style="fill:#fff;fill-rule:evenodd;stroke:none;stroke-width:1px;stroke-linecap:butt;stroke-linejoin:miter;stroke-opacity:1;fill-opacity:1" id="path4191" d="M 2,26 2,11 1,11 1,9 2,9 2,6 C 2,6 2,7 2,6 2,5 3,5 3,5 l 3,0 0,2 -1,0 0,2 1,0 0,2 -1,0 0,15 z"/><path style="fill:#7f7f7f;fill-opacity:1;fill-rule:evenodd;stroke:#3c3c3c;stroke-width:.51683007;stroke-linecap:butt;stroke-linejoin:miter;stroke-opacity:1;filter:url(#filter4461);stroke-miterlimit:4;stroke-dasharray:none" id="path4195-1" d="m 10.30115,24.248277 0,-13 2,0 0,13 z" mask="url(#mask4479)" transform="matrix(1.064071,0,0,1.0070277,-0.65051241,-0.06955745)"/><text xml:space="preserve" style="font-style:normal;font-variant:normal;font-weight:700;font-stretch:normal;font-size:22.5px;line-height:125%;font-family:UkrainianSchoolBook;-inkscape-font-specification:UkrainianSchoolBook Bold;letter-spacing:0;word-spacing:0;fill:#3c3c3c;fill-opacity:1;stroke:none;stroke-width:1px;stroke-linecap:butt;stroke-linejoin:miter;stroke-opacity:1;filter:url(#filter4533)" id="text4233-4" x="21.146" y="20.334"><tspan id="tspan4235-1" x="21.146" y="20.334" style="font-style:normal;font-variant:normal;font-weight:700;font-stretch:normal;font-size:11.25px;font-family:Verdana;-inkscape-font-specification:Verdana Bold;fill:#3c3c3c;fill-opacity:1">2</tspan></text><text xml:space="preserve" style="font-style:normal;font-variant:normal;font-weight:700;font-stretch:normal;font-size:22.5px;line-height:125%;font-family:UkrainianSchoolBook;-inkscape-font-specification:UkrainianSchoolBook Bold;letter-spacing:0;word-spacing:0;fill:#fff;fill-opacity:1;stroke:none;stroke-width:1px;stroke-linecap:butt;stroke-linejoin:miter;stroke-opacity:1" id="text4233" x="20.912" y="19.898"><tspan id="tspan4235" x="20.912" y="19.898" style="font-style:normal;font-variant:normal;font-weight:700;font-stretch:normal;font-size:11.25px;font-family:Verdana;-inkscape-font-specification:Verdana Bold">2</tspan></text></svg>